HIERARCHY
ROOT joint_Root
{
	OFFSET 0.0 0.0 0.0
	CHANNELS 6 Xposition Yposition Zposition Zrotation Xrotation Yrotation 
	JOINT Hips
	{
		OFFSET -0.726466 93.3139 -2.00062
		CHANNELS 6 Xposition Yposition Zposition Zrotation Xrotation Yrotation 
		JOINT Spine
		{
			OFFSET 15.7357 0.0 0.0
			CHANNELS 6 Xposition Yposition Zposition Zrotation Xrotation Yrotation 
			JOINT Chest
			{
				OFFSET 8.98455 -0.406207 0.0
				CHANNELS 6 Xposition Yposition Zposition Zrotation Xrotation Yrotation 
				JOINT Neck
				{
					OFFSET 16.3773 0.0 0.0
					CHANNELS 6 Xposition Yposition Zposition Zrotation Xrotation Yrotation 
					JOINT Head
					{
						OFFSET 6.45672 0.0 0.0
						CHANNELS 6 Xposition Yposition Zposition Zrotation Xrotation Yrotation 
						End Site
						{
							OFFSET 0.0 0.0 0.0
						}
					}
				}
				JOINT Shoulder_L
				{
					OFFSET 12.9942 -0.242716 4.98039
					CHANNELS 6 Xposition Yposition Zposition Zrotation Xrotation Yrotation 
					JOINT UpperArm_L
					{
						OFFSET 5.34809 0.0 0.0
						CHANNELS 6 Xposition Yposition Zposition Zrotation Xrotation Yrotation 
						JOINT LowerArm_L
						{
							OFFSET 24.3286 1.87007e-05 0.0
							CHANNELS 6 Xposition Yposition Zposition Zrotation Xrotation Yrotation 
							JOINT Hand_L
							{
								OFFSET 22.2916 0.0 0.0
								CHANNELS 6 Xposition Yposition Zposition Zrotation Xrotation Yrotation 
								End Site
								{
									OFFSET 0.0 0.0 0.0
								}
							}
						}
					}
				}
				JOINT Shoulder_R
				{
					OFFSET 12.9945 -0.242716 -4.98039
					CHANNELS 6 Xposition Yposition Zposition Zrotation Xrotation Yrotation 
					JOINT UpperArm_R
					{
						OFFSET -5.34813 0.0 0.0
						CHANNELS 6 Xposition Yposition Zposition Zrotation Xrotation Yrotation 
						JOINT LowerArm_R
						{
							OFFSET -24.3289 0.000322201 0.0
							CHANNELS 6 Xposition Yposition Zposition Zrotation Xrotation Yrotation 
							JOINT Hand_R
							{
								OFFSET -22.2915 -0.000108084 0.0
								CHANNELS 6 Xposition Yposition Zposition Zrotation Xrotation Yrotation 
								End Site
								{
									OFFSET 0.0 0.0 0.0
								}
							}
						}
					}
				}
			}
		}
		JOINT UpperLeg_L
		{
			OFFSET -2.19248 -6.46944 0.0
			CHANNELS 6 Xposition Yposition Zposition Zrotation Xrotation Yrotation 
			JOINT LowerLeg_L
			{
				OFFSET 39.0811 0.0 -1.23785e-05
				CHANNELS 6 Xposition Yposition Zposition Zrotation Xrotation Yrotation 
				JOINT Foot_L
				{
					OFFSET 40.9854 0.0 -1.26872e-05
					CHANNELS 6 Xposition Yposition Zposition Zrotation Xrotation Yrotation 
					JOINT Toes_L
					{
						OFFSET 11.7543 0.0 0.0
						CHANNELS 6 Xposition Yposition Zposition Zrotation Xrotation Yrotation 
						End Site
						{
							OFFSET 0.0 0.0 0.0
						}
					}
				}
			}
		}
		JOINT UpperLeg_R
		{
			OFFSET -2.19251 6.46944 0.0
			CHANNELS 6 Xposition Yposition Zposition Zrotation Xrotation Yrotation 
			JOINT LowerLeg_R
			{
				OFFSET -39.0811 -0.00228153 -0.0401928
				CHANNELS 6 Xposition Yposition Zposition Zrotation Xrotation Yrotation 
				JOINT Foot_R
				{
					OFFSET -40.9854 0.0 0.0
					CHANNELS 6 Xposition Yposition Zposition Zrotation Xrotation Yrotation 
					JOINT Toes_R
					{
						OFFSET -11.7543 0.0 0.0
						CHANNELS 6 Xposition Yposition Zposition Zrotation Xrotation Yrotation 
						End Site
						{
							OFFSET 0.0 0.0 0.0
						}
					}
				}
			}
		}
	}
}
MOTION
Frames:	7
Frame Time:	0.0333333
0.000000 0.000000 0.000000 0.000000 0.000000 -0.000000 -211.011000 84.864700 196.631000 -45.511700 81.346100 137.371000 15.735700 0.000005 -0.000001 65.253700 79.511700 -61.424800 8.984550 -0.406207 -0.000000 11.681500 -8.579360 8.546010 16.377300 -0.000001 -0.000001 7.120190 -1.338430 -0.400853 6.456720 -0.000001 -0.000000 2.595600 4.152950 -1.496390 12.994200 -0.242716 4.980390 -89.149100 -2.488590 -71.116800 5.348090 -0.000007 -0.000001 -43.508000 27.340300 -32.868300 24.328600 0.000019 0.000005 8.512820 5.376630 -57.953100 22.291600 -0.000001 0.000005 6.224470 5.617160 -12.428600 12.994500 -0.242716 -4.980390 88.754500 2.470510 -63.234100 -5.348130 -0.000001 -0.000004 -61.549600 25.703400 0.684983 -24.328900 0.000322 -0.000009 3.063930 5.701410 -28.324400 -22.291500 -0.000108 -0.000004 0.414568 5.525020 -7.577440 -2.192480 -6.469440 -0.000000 -164.347000 -2.182270 11.439100 39.081100 -0.000007 -0.000012 -0.010480 0.013855 37.107200 40.985400 -0.000006 -0.000013 -0.034353 10.281400 -72.486700 11.754300 -0.000000 0.000003 -0.102228 -0.450062 -35.372200 -2.192510 6.469440 -0.000001 -171.565000 19.243000 143.657000 -39.081100 -0.002282 -0.040193 -0.093533 0.094247 45.764200 -40.985400 0.000008 0.000006 2.567580 -9.774760 -59.076600 -11.754300 -0.000006 -0.000006 -0.012271 -0.119887 -21.460800
0.000000 0.000000 0.000000 0.000000 0.000000 -0.000000 -206.808000 84.974400 197.683000 -46.412700 82.126900 139.595000 15.735700 0.000005 -0.000001 66.730800 79.383100 -63.177000 8.984550 -0.406207 -0.000000 12.097300 -8.182050 7.984170 16.377300 -0.000001 -0.000001 7.059170 -1.613540 -0.224006 6.456720 -0.000001 -0.000000 2.745130 3.726090 -1.284200 12.994200 -0.242716 4.980390 -89.122500 -2.580140 -71.209100 5.348090 -0.000007 -0.000001 -47.444900 29.077400 -28.090400 24.328600 0.000019 0.000005 8.566360 5.976630 -55.348600 22.291600 -0.000001 0.000005 5.171810 5.614700 -12.261400 12.994500 -0.242716 -4.980390 88.614800 2.787360 -63.561600 -5.348130 -0.000001 -0.000004 -60.967100 27.066900 -2.641190 -24.328900 0.000322 -0.000009 3.129690 5.913360 -27.964400 -22.291500 -0.000108 -0.000004 0.735552 5.523130 -7.496000 -2.192480 -6.469440 -0.000000 -164.463000 -1.264270 8.770970 39.081100 -0.000007 -0.000012 0.066834 -0.064248 46.128600 40.985400 -0.000006 -0.000013 -1.111120 9.143860 -63.202600 11.754300 -0.000000 0.000003 -0.097216 -0.437609 -34.827900 -2.192510 6.469440 -0.000001 -172.435000 19.831900 146.771000 -39.081100 -0.002282 -0.040193 -0.164373 0.146702 48.808400 -40.985400 0.000008 0.000006 2.457210 -9.297640 -63.894500 -11.754300 -0.000006 -0.000006 -0.010460 -0.107041 -20.934900
0.000000 0.000000 0.000000 0.000000 0.000000 -0.000000 -203.143000 85.463700 198.558000 -44.060300 83.209800 137.997000 15.735700 0.000005 -0.000001 68.831500 79.548300 -65.579000 8.984550 -0.406207 -0.000000 12.019000 -7.363330 7.286930 16.377300 -0.000001 -0.000001 6.966640 -1.919430 -0.028119 6.456720 -0.000001 -0.000000 3.122700 3.077470 -1.252900 12.994200 -0.242716 4.980390 -89.050500 -2.793360 -71.218200 5.348090 -0.000007 -0.000001 -51.856000 30.383700 -23.063200 24.328600 0.000019 0.000005 9.155670 7.212560 -52.085400 22.291600 -0.000001 0.000005 3.792270 5.611890 -12.078400 12.994500 -0.242716 -4.980390 88.595900 2.878960 -63.987500 -5.348130 -0.000001 -0.000004 -60.207600 28.351900 -6.168580 -24.328900 0.000322 -0.000009 2.767960 4.968150 -29.186900 -22.291500 -0.000108 -0.000004 0.771158 5.526120 -7.625440 -2.192480 -6.469440 -0.000000 -165.064000 -0.621278 3.737700 39.081100 -0.000007 -0.000012 0.165965 -0.112532 55.859900 40.985400 -0.000006 -0.000013 -3.526150 6.077240 -52.509200 11.754300 -0.000000 0.000003 -0.015693 -0.142148 -22.377600 -2.192510 6.469440 -0.000001 -173.187000 19.631200 150.332000 -39.081100 -0.002282 -0.040193 -0.200811 0.175487 49.305500 -40.985400 0.000008 0.000006 2.317140 -8.759060 -67.107700 -11.754300 -0.000006 -0.000006 -0.009819 -0.102282 -20.740200
0.000000 0.000000 0.000000 0.000000 0.000000 -0.000000 -199.853000 86.242400 199.165000 -37.160700 84.155900 131.290000 15.735700 0.000005 -0.000001 71.472200 79.865700 -68.444200 8.984550 -0.406207 -0.000000 11.678200 -6.284760 6.702310 16.377300 -0.000001 -0.000001 6.833740 -1.998390 0.162737 6.456720 -0.000001 -0.000000 3.096900 2.301080 -1.430230 12.994200 -0.242716 4.980390 -89.007800 -2.878720 -70.972800 5.348090 -0.000007 -0.000001 -55.657800 31.338000 -18.260400 24.328600 0.000019 0.000005 9.775120 8.605480 -49.025400 22.291600 -0.000001 0.000005 2.823940 5.613820 -12.200700 12.994500 -0.242716 -4.980390 88.616500 2.899980 -64.481900 -5.348130 -0.000001 -0.000004 -58.906100 29.727600 -10.252000 -24.328900 0.000322 -0.000009 1.900200 3.128110 -31.324100 -22.291500 -0.000108 -0.000004 0.908394 5.527810 -7.698510 -2.192480 -6.469440 -0.000000 -165.781000 -1.299480 -1.314200 39.081100 -0.000007 -0.000012 0.208095 -0.103896 63.467300 40.985400 -0.000006 -0.000013 -2.127000 2.140450 -50.700500 11.754300 -0.000000 0.000003 -0.004979 -0.061266 -19.069500 -2.192510 6.469440 -0.000001 -173.618000 18.205200 153.989000 -39.081100 -0.002282 -0.040193 -0.207592 0.190422 47.914000 -40.985400 0.000008 0.000006 1.855130 -9.053660 -69.010600 -11.754300 -0.000006 -0.000006 -0.010032 -0.103874 -20.805300
0.000000 0.000000 0.000000 0.000000 0.000000 -0.000000 -196.840000 87.160200 199.540000 -29.447900 85.259700 123.595000 15.735700 0.000005 -0.000001 74.296100 80.184400 -71.632700 8.984550 -0.406207 -0.000000 11.293600 -5.190560 5.840910 16.377300 -0.000001 -0.000001 6.560470 -1.911300 0.241399 6.456720 -0.000001 -0.000000 3.087510 1.554290 -1.627800 12.994200 -0.242716 4.980390 -89.009100 -2.809280 -70.561500 5.348090 -0.000007 -0.000001 -58.630100 32.095900 -13.733400 24.328600 0.000019 0.000005 9.514680 9.269110 -46.137200 22.291600 -0.000001 0.000005 2.442290 5.610150 -11.967600 12.994500 -0.242716 -4.980390 88.665700 2.885220 -65.168000 -5.348130 -0.000001 -0.000004 -57.048300 30.969600 -14.679800 -24.328900 0.000322 -0.000009 1.079750 1.604850 -33.980400 -22.291500 -0.000108 -0.000004 1.200150 5.531230 -7.848140 -2.192480 -6.469440 -0.000000 -166.985000 -2.814150 -6.347990 39.081100 -0.000007 -0.000012 0.196917 -0.076809 68.689800 40.985400 -0.000006 -0.000013 0.880179 0.067352 -53.947600 11.754300 -0.000000 0.000003 -0.006403 -0.074459 -19.607500 -2.192510 6.469440 -0.000001 -174.363000 16.672700 157.689000 -39.081100 -0.002282 -0.040193 -0.188903 0.188401 45.566900 -40.985400 0.000008 0.000006 1.610940 -9.304030 -70.134600 -11.754300 -0.000006 -0.000006 -0.010186 -0.105021 -20.852200
0.000000 0.000000 0.000000 0.000000 0.000000 -0.000000 -194.071000 88.121500 199.758000 -17.913500 86.507200 111.794000 15.735700 0.000005 -0.000001 77.445700 80.625900 -75.271600 8.984550 -0.406207 -0.000000 10.632900 -3.992440 4.718850 16.377300 -0.000001 -0.000001 6.498640 -1.770780 0.218602 6.456720 -0.000001 -0.000000 3.085320 0.832450 -1.669440 12.994200 -0.242716 4.980390 -88.937500 -2.910280 -69.934500 5.348090 -0.000007 -0.000001 -61.370400 32.559400 -9.513270 24.328600 0.000019 0.000005 8.694100 9.413590 -43.073100 22.291600 -0.000001 0.000005 2.292500 5.607330 -11.785100 12.994500 -0.242716 -4.980390 88.814400 2.667280 -66.025900 -5.348130 -0.000001 -0.000004 -54.960600 31.912800 -19.029300 -24.328900 0.000322 -0.000009 0.305253 0.414509 -36.519800 -22.291500 -0.000108 -0.000004 1.602020 5.536020 -8.062560 -2.192480 -6.469440 -0.000000 -168.458000 -4.751480 -11.669600 39.081100 -0.000007 -0.000012 0.202790 -0.070292 70.881000 40.985400 -0.000006 -0.000013 1.026140 -0.239612 -54.787800 11.754300 -0.000000 0.000003 -0.005016 -0.061625 -19.084200 -2.192510 6.469440 -0.000001 -175.410000 15.674300 161.155000 -39.081100 -0.002282 -0.040193 -0.163586 0.181465 42.598800 -40.985400 0.000008 0.000006 1.480070 -8.944680 -70.707700 -11.754300 -0.000006 -0.000006 -0.010676 -0.108624 -20.999600
0.000000 0.000000 0.000000 0.000000 0.000000 -0.000000 -191.385000 89.045100 199.860000 8.060650 87.551200 85.517200 15.735700 0.000005 -0.000001 81.302200 81.060900 -79.699000 8.984550 -0.406207 -0.000000 9.953830 -2.656180 3.435860 16.377300 -0.000001 -0.000001 6.551690 -1.512320 0.238453 6.456720 -0.000001 -0.000000 3.051120 0.081168 -1.572450 12.994200 -0.242716 4.980390 -88.799700 -3.152560 -69.144400 5.348090 -0.000007 -0.000001 -63.827600 32.205700 -5.490660 24.328600 0.000019 0.000005 8.181690 9.682960 -40.524100 22.291600 -0.000001 0.000005 1.614990 5.598790 -11.266900 12.994500 -0.242716 -4.980390 89.051000 2.237200 -67.009600 -5.348130 -0.000001 -0.000004 -52.945200 32.420400 -23.284300 -24.328900 0.000322 -0.000009 -0.361077 -0.450371 -38.614000 -22.291500 -0.000108 -0.000004 1.964940 5.534780 -8.007070 -2.192480 -6.469440 -0.000000 -170.072000 -6.710190 -16.228300 39.081100 -0.000007 -0.000012 0.198694 -0.073009 69.823100 40.985400 -0.000006 -0.000013 0.370855 2.143180 -56.180000 11.754300 -0.000000 0.000003 -0.005583 -0.067013 -19.303800 -2.192510 6.469440 -0.000001 -176.635000 15.093400 164.624000 -39.081100 -0.002282 -0.040193 -0.136385 0.170923 39.253300 -40.985400 0.000008 0.000006 1.537660 -8.117980 -70.949900 -11.754300 -0.000006 -0.000006 -0.011631 -0.115445 -21.278800
